<svg xmlns="http://www.w3.org/2000/svg" viewBox="0 0 24 24" fill="#0078D4"><path d="M24 7.387v10.478c0 .23-.08.424-.238.576-.158.154-.352.23-.584.23h-8.49v-8.342l2.015 1.46 1.717-2.336-3.732-2.711V5.42h8.49c.233 0 .427.076.585.23.158.152.237.345.237.575v1.162zm-11.04 11.037V5.42H7.875c-.16 0-.298.058-.413.173-.116.116-.174.254-.174.414V18.85c0 .159.058.297.174.413.115.116.253.174.413.174H12.96zM6.72 8.07a3.63 3.63 0 0 0-1.757-.447 3.56 3.56 0 0 0-1.818.465 3.42 3.42 0 0 0-1.294 1.284A3.566 3.566 0 0 0 1.38 11.2c0 .66.157 1.272.471 1.837.314.566.743 1.01 1.287 1.332a3.5 3.5 0 0 0 1.8.483c.637 0 1.22-.154 1.75-.462a3.348 3.348 0 0 0 1.262-1.27 3.566 3.566 0 0 0 .461-1.77 3.623 3.623 0 0 0-.458-1.817A3.413 3.413 0 0 0 6.72 8.07zm-.287 5.116c-.357.414-.81.621-1.36.621-.553 0-1.01-.204-1.37-.613-.36-.41-.54-.935-.54-1.575 0-.671.178-1.21.534-1.618.356-.408.812-.613 1.367-.613.555 0 1.012.208 1.37.623.358.415.537.949.537 1.604 0 .647-.18 1.157-.538 1.571z"/></svg>