<svg xmlns="http://www.w3.org/2000/svg" viewBox="0 0 24 24" fill="#00A1E0"><path d="M10.006 5.16a4.073 4.073 0 0 1 3.702-2.381 4.073 4.073 0 0 1 3.8 2.588 4.946 4.946 0 0 1 1.898-.375C22.09 4.992 24 6.902 24 9.585a4.617 4.617 0 0 1-2.122 3.878c.133.455.204.933.204 1.429 0 2.923-2.37 5.293-5.293 5.293a5.273 5.273 0 0 1-3.383-1.222 4.455 4.455 0 0 1-3.312 1.48 4.455 4.455 0 0 1-4.1-2.725A4.075 4.075 0 0 1 2.1 17.9a4.075 4.075 0 0 1-2.1-3.56c0-1.325.631-2.502 1.61-3.25A4.075 4.075 0 0 1 1.05 9.4 4.075 4.075 0 0 1 5.126 5.325c.8 0 1.554.231 2.186.629a4.994 4.994 0 0 1 2.694-.794z"/></svg>